<svg version="1.1" xmlns="http://www.w3.org/2000/svg" viewBox="-266.2 -1681.7 7326.863560599814 2927.4"><desc>Created with Snap</desc><defs></defs><g><rect x="-266.2" y="-1681.7" width="7326.863560599814" height="2927.4" style="" fill="#143d59"></rect><g transform="matrix(35.8605,0,0,35.8605,3301.8589,-2012.8164)"><g><circle cx="16.4" cy="32.1" r="3.3" style="" fill="#f4b41a"></circle><circle cx="33.5" cy="31.1" r="3.3" style="" fill="#f4b41a"></circle><circle cx="17.4" cy="47.9" r="3.3" style="" fill="#f4b41a"></circle><circle cx="34.4" cy="46.8" r="3.3" style="" fill="#f4b41a"></circle><circle cx="64.9" cy="45.7" r="3.3" style="" fill="#f4b41a"></circle><circle cx="71.1" cy="57.1" r="3.3" style="" fill="#f4b41a"></circle><circle cx="77.4" cy="68.5" r="3.3" style="" fill="#f4b41a"></circle><g><path d="M47.1,57.3l-2.3-38.1c0-0.4-0.2-0.8-0.5-1c-0.3-0.3-0.7-0.4-1.1-0.4L5.1,20.1c-0.8,0-1.5,0.8-1.4,1.6L6,59.8    c0,0.4,0.2,0.8,0.5,1c0.3,0.2,0.6,0.4,1,0.4c0,0,0.1,0,0.1,0l38.1-2.3C46.5,58.8,47.2,58.1,47.1,57.3z M8.9,58.1L6.8,23l35.1-2.1    L44,56L8.9,58.1z" style="" fill="#f4b41a"></path><path d="M95.2,42.6L58.5,32c-0.8-0.2-1.6,0.2-1.9,1L46.1,69.7c-0.2,0.8,0.2,1.6,1,1.9l36.7,10.6c0.1,0,0.3,0.1,0.4,0.1    c0.3,0,0.5-0.1,0.7-0.2c0.3-0.2,0.6-0.5,0.7-0.9l10.6-36.7C96.4,43.7,96,42.9,95.2,42.6z M83.1,78.9l-33.8-9.8l9.8-33.8l33.8,9.8    L83.1,78.9z" style="" fill="#f4b41a"></path></g></g><desc>Created with Snap</desc><defs></defs></g><g><g transform="matrix(1,0,0,-1,0,0)"><path d="M41 6L44 728Q266 726 387 614Q508 503 508 288Q508 219 472 162Q436 105 379 71Q323 37 257 18Q192 0 128 0Q88 0 41 6ZM116 67L133 67Q190 67 243 80Q296 94 341 121Q386 148 413 195Q440 243 440 305Q440 389 389 475Q339 562 267 615Q196 669 135 669Q122 669 110 666Q110 606 116 67ZM611 514L657 504Q665 422 671 246Q677 71 679 29Q670 -2 644 -2Q626 -2 609 12Q593 27 589 48Q591 89 597 261Q603 434 611 514ZM625 693Q652 693 670 669Q688 646 688 616Q688 594 677 580Q667 567 649 567Q621 567 605 590Q589 613 589 644Q589 666 598 679Q608 693 625 693ZM1107 496L1102 453Q1060 459 1030 459Q961 459 916 417Q871 376 854 319Q838 263 838 194Q838 162 842 137Q846 112 856 88Q867 64 889 50Q912 37 945 37Q989 37 1057 54Q1078 62 1090 62Q1114 62 1119 6Q1031 -22 956 -22Q847 -22 808 31Q770 85 770 205Q770 275 779 327Q789 380 813 425Q837 471 882 495Q928 519 994 519Q1068 519 1107 496ZM1573 97L1583 53Q1539 37 1452 17Q1366 -2 1324 -2Q1281 -2 1249 26Q1217 55 1201 99Q1185 144 1177 187Q1170 231 1170 273Q1170 523 1396 523Q1450 523 1491 488Q1532 454 1532 399Q1532 369 1515 346Q1499 323 1475 309Q1452 296 1415 285Q1379 274 1351 269Q1323 264 1284 258Q1245 252 1230 249Q1231 220 1233 198Q1236 176 1243 150Q1251 125 1263 108Q1276 92 1298 81Q1320 70 1350 70Q1386 70 1438 76Q1490 83 1530 90Q1571 97 1573 97ZM1234 311Q1370 350 1457 393Q1450 426 1438 441Q1426 456 1402 456Q1341 456 1291 414Q1242 372 1234 311ZM1639 718L1684 730Q1684 698 1685 694Q1742 732 1845 732Q1956 732 2011 662Q2066 593 2066 468Q2066 357 2012 284Q1958 211 1849 211Q1831 211 1705 223Q1707 150 1713 -4Q1704 -35 1678 -35Q1660 -35 1643 -21Q1627 -6 1623 15Q1626 99 1629 342Q1633 585 1639 718ZM1694 627L1702 315Q1757 285 1829 285Q1898 285 1946 337Q1994 389 1994 464Q1994 545 1944 610Q1894 675 1819 675Q1758 675 1694 627ZM2148 48L2170 686L2216 676L2238 29Q2229 -2 2203 -2Q2185 -2 2168 12Q2152 27 2148 48ZM2356 432L2336 483Q2362 509 2402 524Q2442 540 2481 540Q2650 540 2650 248Q2650 208 2645 130Q2641 52 2641 13Q2633 -18 2610 -18Q2592 -18 2577 0Q2562 18 2562 40Q2562 47 2563 50Q2501 -10 2431 -10Q2378 -10 2338 28Q2299 67 2299 122Q2299 215 2371 290Q2444 365 2536 365Q2540 365 2544 364Q2548 364 2553 363Q2559 362 2562 362Q2554 479 2469 479Q2419 479 2356 432ZM2565 119Q2567 189 2567 225Q2567 255 2565 309L2557 309Q2486 308 2427 256Q2369 204 2369 130Q2369 98 2388 79Q2408 60 2436 60Q2480 60 2565 119ZM2803 -296L2741 -261Q2782 -190 2886 9Q2805 81 2762 227Q2719 373 2710 519L2768 516Q2773 492 2789 406Q2806 321 2816 280Q2826 239 2851 177Q2877 116 2910 74Q3049 341 3049 512L3049 523Q3101 515 3127 504Q3111 399 3077 290Q3043 181 2992 70Q2941 -40 2901 -115Q2862 -190 2803 -296Z" style="" fill="#ffffff"></path></g></g></g></svg>